<?xml version="1.0" encoding="UTF-8"?>
<svg version="1.1" xmlns="http://www.w3.org/2000/svg" width="1001" height="251">
<path d="M0,0 L21,0 L21,1 L22,1 L22,2 L23,2 L23,3 L24,3 L24,4 L25,4 L25,5 L27,5 L27,6 L28,6 L28,7 L29,7 L29,8 L30,8 L30,9 L31,9 L31,10 L33,10 L33,11 L34,11 L34,12 L35,12 L35,13 L36,13 L36,14 L38,14 L38,15 L39,15 L39,16 L40,16 L40,17 L41,17 L41,18 L42,18 L42,19 L44,19 L44,20 L45,20 L45,21 L46,21 L46,22 L47,22 L47,23 L49,23 L49,24 L50,24 L50,25 L51,25 L51,26 L52,26 L52,27 L53,27 L53,28 L55,28 L55,29 L56,29 L56,30 L57,30 L57,31 L58,31 L58,32 L60,32 L60,33 L61,33 L61,34 L62,34 L62,35 L63,35 L63,36 L64,36 L64,37 L66,37 L66,38 L67,38 L67,39 L68,39 L68,40 L69,40 L69,41 L71,41 L71,42 L72,42 L72,43 L73,43 L73,44 L74,44 L74,45 L75,45 L75,46 L77,46 L77,47 L78,47 L78,48 L79,48 L79,49 L80,49 L80,50 L81,50 L81,65 L80,65 L80,66 L20,66 L20,84 L19,84 L19,85 L0,85 L0,84 L-1,84 L-1,66 L-16,66 L-16,84 L-17,84 L-17,85 L-37,85 L-37,84 L-38,84 L-38,81 L-37,81 L-37,21 L-54,21 L-54,20 L-55,20 L-55,17 L-54,17 L-54,10 L-55,10 L-55,7 L-54,7 L-54,6 L-50,6 L-50,5 L-43,5 L-43,4 L-37,4 L-37,3 L-30,3 L-30,2 L-23,2 L-23,1 L-17,1 L-17,2 L-16,2 L-16,49 L-1,49 L-1,1 L0,1 Z M20,21 L20,49 L55,49 L55,48 L54,48 L54,47 L52,47 L52,46 L51,46 L51,45 L50,45 L50,44 L49,44 L49,43 L48,43 L48,42 L46,42 L46,41 L45,41 L45,40 L44,40 L44,39 L43,39 L43,38 L41,38 L41,37 L40,37 L40,36 L39,36 L39,35 L38,35 L38,34 L36,34 L36,33 L35,33 L35,32 L34,32 L34,31 L33,31 L33,30 L31,30 L31,29 L30,29 L30,28 L29,28 L29,27 L28,27 L28,26 L26,26 L26,25 L25,25 L25,24 L24,24 L24,23 L23,23 L23,22 L21,22 L21,21 Z " fill="#FDFDFD" transform="translate(496,118)"/>
<path d="M0,0 L91,0 L91,1 L94,1 L94,2 L96,2 L96,3 L97,3 L97,4 L98,4 L98,6 L99,6 L99,9 L100,9 L100,28 L99,28 L99,31 L98,31 L98,32 L97,32 L97,33 L96,33 L96,34 L95,34 L95,35 L93,35 L93,36 L86,36 L86,37 L87,37 L87,38 L88,38 L88,39 L89,39 L89,40 L91,40 L91,41 L92,41 L92,42 L93,42 L93,43 L94,43 L94,44 L95,44 L95,45 L97,45 L97,46 L98,46 L98,47 L99,47 L99,48 L100,48 L100,49 L101,49 L101,50 L103,50 L103,51 L105,51 L105,55 L103,55 L103,56 L85,56 L85,55 L83,55 L83,54 L82,54 L82,53 L81,53 L81,52 L80,52 L80,51 L79,51 L79,50 L78,50 L78,49 L77,49 L77,48 L76,48 L76,47 L75,47 L75,46 L74,46 L74,45 L73,45 L73,44 L72,44 L72,43 L71,43 L71,42 L70,42 L70,41 L68,41 L68,39 L67,39 L67,38 L65,38 L65,36 L56,36 L56,37 L57,37 L57,51 L56,51 L56,52 L57,52 L57,53 L56,53 L56,55 L54,55 L54,56 L0,56 L0,55 L-2,55 L-2,43 L-1,43 L-1,42 L39,42 L39,33 L16,33 L16,32 L15,32 L15,22 L16,22 L16,20 L38,20 L38,21 L39,21 L39,13 L-1,13 L-1,12 L-2,12 L-2,1 L0,1 Z M57,13 L57,24 L81,24 L81,23 L84,23 L84,14 L82,14 L82,13 Z " fill="#F6F6F6" transform="translate(827,29)"/>
<path d="M0,0 L91,0 L91,1 L94,1 L94,2 L96,2 L96,3 L97,3 L97,4 L98,4 L98,5 L99,5 L99,7 L100,7 L100,30 L99,30 L99,32 L98,32 L98,33 L97,33 L97,34 L95,34 L95,35 L94,35 L94,36 L86,36 L86,37 L87,37 L87,38 L89,38 L89,39 L90,39 L90,40 L91,40 L91,41 L92,41 L92,42 L93,42 L93,43 L94,43 L94,44 L96,44 L96,45 L97,45 L97,46 L98,46 L98,47 L99,47 L99,48 L101,48 L101,49 L102,49 L102,50 L104,50 L104,51 L105,51 L105,52 L106,52 L106,53 L105,53 L105,55 L103,55 L103,56 L86,56 L86,55 L84,55 L84,54 L83,54 L83,53 L82,53 L82,52 L81,52 L81,51 L80,51 L80,50 L79,50 L79,49 L78,49 L78,48 L76,48 L76,47 L75,47 L75,46 L74,46 L74,45 L73,45 L73,44 L72,44 L72,43 L71,43 L71,42 L70,42 L70,41 L69,41 L69,40 L68,40 L68,39 L67,39 L67,38 L66,38 L66,37 L65,37 L65,36 L57,36 L57,55 L54,55 L54,56 L1,56 L1,55 L-2,55 L-2,43 L-1,43 L-1,42 L39,42 L39,33 L17,33 L17,32 L15,32 L15,29 L16,29 L16,25 L15,25 L15,22 L16,22 L16,21 L17,21 L17,20 L39,20 L39,13 L-1,13 L-1,3 L-2,3 L-2,2 L-1,2 L-1,1 L0,1 Z M57,13 L57,24 L81,24 L81,23 L84,23 L84,14 L82,14 L82,13 Z " fill="#F6F6F6" transform="translate(374,29)"/>
<path d="M0,0 L14,0 L14,1 L15,1 L15,2 L16,2 L16,5 L17,5 L17,7 L18,7 L18,10 L19,10 L19,13 L20,13 L20,16 L21,16 L21,17 L22,17 L22,21 L23,21 L23,23 L24,23 L24,25 L25,25 L25,28 L26,28 L26,30 L27,30 L27,27 L28,27 L28,24 L29,24 L29,21 L30,21 L30,19 L31,19 L31,17 L32,17 L32,14 L33,14 L33,12 L34,12 L34,9 L35,9 L35,7 L36,7 L36,3 L37,3 L37,1 L38,1 L38,0 L49,0 L49,1 L50,1 L50,2 L51,2 L51,5 L52,5 L52,7 L53,7 L53,9 L54,9 L54,12 L55,12 L55,15 L56,15 L56,17 L57,17 L57,20 L58,20 L58,22 L59,22 L59,24 L60,24 L60,27 L61,27 L61,30 L62,30 L62,28 L63,28 L63,26 L64,26 L64,22 L65,22 L65,20 L66,20 L66,17 L67,17 L67,14 L68,14 L68,11 L69,11 L69,9 L70,9 L70,6 L71,6 L71,2 L72,2 L72,1 L73,1 L73,0 L86,0 L86,1 L88,1 L88,4 L87,4 L87,5 L86,5 L86,7 L85,7 L85,11 L84,11 L84,12 L83,12 L83,15 L82,15 L82,18 L81,18 L81,20 L80,20 L80,23 L79,23 L79,26 L78,26 L78,29 L77,29 L77,31 L76,31 L76,33 L75,33 L75,36 L74,36 L74,39 L73,39 L73,41 L72,41 L72,43 L71,43 L71,47 L70,47 L70,49 L69,49 L69,51 L68,51 L68,55 L65,55 L65,56 L57,56 L57,55 L55,55 L55,54 L54,54 L54,51 L53,51 L53,48 L52,48 L52,46 L51,46 L51,44 L50,44 L50,41 L49,41 L49,38 L48,38 L48,36 L47,36 L47,33 L46,33 L46,30 L45,30 L45,28 L44,28 L44,26 L42,26 L42,28 L41,28 L41,31 L40,31 L40,33 L39,33 L39,36 L38,36 L38,38 L37,38 L37,40 L36,40 L36,44 L35,44 L35,46 L34,46 L34,48 L33,48 L33,51 L32,51 L32,54 L31,54 L31,55 L29,55 L29,56 L21,56 L21,55 L18,55 L18,52 L17,52 L17,50 L16,50 L16,48 L15,48 L15,44 L14,44 L14,42 L13,42 L13,39 L12,39 L12,37 L11,37 L11,34 L10,34 L10,31 L9,31 L9,29 L8,29 L8,26 L7,26 L7,24 L6,24 L6,21 L5,21 L5,19 L4,19 L4,16 L3,16 L3,13 L2,13 L2,11 L1,11 L1,8 L0,8 L0,5 L-1,5 L-1,4 L-2,4 L-2,1 L0,1 Z " fill="#F6F6F6" transform="translate(79,29)"/>
<path d="M0,0 L40,0 L40,1 L43,1 L43,2 L45,2 L45,3 L46,3 L46,4 L47,4 L47,6 L48,6 L48,9 L49,9 L49,16 L48,16 L48,17 L45,17 L45,18 L40,18 L40,19 L35,19 L35,18 L34,18 L34,14 L5,14 L5,20 L39,20 L39,21 L44,21 L44,22 L45,22 L45,23 L47,23 L47,25 L48,25 L48,26 L49,26 L49,29 L50,29 L50,46 L49,46 L49,49 L48,49 L48,51 L47,51 L47,53 L45,53 L45,54 L44,54 L44,55 L40,55 L40,56 L-3,56 L-3,55 L-6,55 L-6,54 L-8,54 L-8,53 L-9,53 L-9,52 L-10,52 L-10,50 L-11,50 L-11,47 L-12,47 L-12,39 L-11,39 L-11,38 L-7,38 L-7,37 L-4,37 L-4,36 L0,36 L0,35 L1,35 L1,36 L2,36 L2,37 L3,37 L3,42 L35,42 L35,35 L3,35 L3,34 L-3,34 L-3,33 L-5,33 L-5,32 L-6,32 L-6,31 L-8,31 L-8,29 L-9,29 L-9,27 L-10,27 L-10,8 L-9,8 L-9,6 L-8,6 L-8,4 L-7,4 L-7,3 L-6,3 L-6,2 L-4,2 L-4,1 L0,1 Z " fill="#F6F6F6" transform="translate(702,29)"/>
<path d="M0,0 L48,0 L48,1 L52,1 L52,2 L53,2 L53,3 L55,3 L55,4 L56,4 L56,7 L57,7 L57,11 L58,11 L58,45 L57,45 L57,49 L56,49 L56,51 L55,51 L55,52 L54,52 L54,53 L53,53 L53,54 L51,54 L51,55 L48,55 L48,56 L0,56 L0,55 L-4,55 L-4,54 L-6,54 L-6,53 L-7,53 L-7,52 L-8,52 L-8,51 L-9,51 L-9,49 L-10,49 L-10,7 L-9,7 L-9,5 L-8,5 L-8,4 L-7,4 L-7,3 L-6,3 L-6,2 L-4,2 L-4,1 L0,1 Z M6,13 L6,14 L7,14 L7,13 Z M7,14 L7,42 L41,42 L41,14 Z " fill="#F7F7F7" transform="translate(178,29)"/>
<path d="M0,0 L41,0 L41,1 L46,1 L46,2 L49,2 L49,3 L52,3 L52,4 L53,4 L53,5 L55,5 L55,6 L56,6 L56,7 L57,7 L57,8 L58,8 L58,9 L59,9 L59,10 L60,10 L60,11 L61,11 L61,12 L62,12 L62,14 L63,14 L63,16 L64,16 L64,18 L65,18 L65,37 L64,37 L64,39 L63,39 L63,41 L62,41 L62,43 L61,43 L61,45 L60,45 L60,46 L59,46 L59,47 L58,47 L58,48 L57,48 L57,49 L56,49 L56,50 L55,50 L55,51 L53,51 L53,52 L51,52 L51,53 L49,53 L49,54 L45,54 L45,55 L40,55 L40,56 L1,56 L1,55 L-1,55 L-1,54 L-2,54 L-2,51 L-1,51 L-1,4 L-2,4 L-2,1 L0,1 Z M15,14 L15,42 L35,42 L35,41 L40,41 L40,40 L42,40 L42,39 L44,39 L44,38 L45,38 L45,37 L46,37 L46,36 L47,36 L47,33 L48,33 L48,21 L47,21 L47,19 L46,19 L46,17 L44,17 L44,16 L43,16 L43,15 L40,15 L40,14 Z " fill="#F7F7F7" transform="translate(303,29)"/>
<path d="M0,0 L41,0 L41,1 L44,1 L44,2 L46,2 L46,3 L48,3 L48,5 L49,5 L49,7 L50,7 L50,12 L51,12 L51,21 L49,21 L49,22 L43,22 L43,23 L35,23 L35,22 L34,22 L34,14 L7,14 L7,42 L34,42 L34,32 L35,32 L35,31 L41,31 L41,32 L46,32 L46,33 L49,33 L49,34 L51,34 L51,46 L50,46 L50,50 L49,50 L49,51 L48,51 L48,53 L46,53 L46,54 L45,54 L45,55 L41,55 L41,56 L0,56 L0,55 L-4,55 L-4,54 L-6,54 L-6,53 L-7,53 L-7,52 L-8,52 L-8,50 L-9,50 L-9,47 L-10,47 L-10,9 L-9,9 L-9,5 L-8,5 L-8,4 L-7,4 L-7,3 L-6,3 L-6,2 L-4,2 L-4,1 L0,1 Z " fill="#F7F7F7" transform="translate(500,29)"/>
<path d="M0,0 L9,0 L9,1 L10,1 L10,2 L11,2 L11,3 L12,3 L12,5 L13,5 L13,6 L15,6 L15,8 L17,8 L17,9 L18,9 L18,11 L19,11 L19,12 L20,12 L20,13 L22,13 L22,15 L23,15 L23,16 L24,16 L24,17 L25,17 L25,18 L26,18 L26,19 L27,19 L27,20 L39,20 L39,1 L40,1 L40,0 L51,0 L51,1 L52,1 L52,55 L50,55 L50,56 L43,56 L43,55 L41,55 L41,54 L40,54 L40,53 L39,53 L39,52 L38,52 L38,51 L37,51 L37,50 L36,50 L36,49 L35,49 L35,48 L34,48 L34,46 L33,46 L33,45 L31,45 L31,44 L30,44 L30,43 L29,43 L29,42 L28,42 L28,41 L27,41 L27,39 L26,39 L26,38 L24,38 L24,36 L23,36 L23,35 L12,35 L12,54 L11,54 L11,55 L9,55 L9,56 L1,56 L1,55 L-1,55 L-1,54 L-2,54 L-2,2 L-1,2 L-1,1 L0,1 Z " fill="#F7F7F7" transform="translate(242,29)"/>
<path d="M0,0 L14,0 L14,1 L15,1 L15,42 L45,42 L45,3 L44,3 L44,2 L45,2 L45,1 L46,1 L46,0 L60,0 L60,1 L61,1 L61,49 L60,49 L60,51 L59,51 L59,52 L58,52 L58,53 L57,53 L57,54 L55,54 L55,55 L51,55 L51,56 L8,56 L8,55 L5,55 L5,54 L3,54 L3,53 L2,53 L2,52 L1,52 L1,50 L0,50 L0,48 L-1,48 L-1,1 L0,1 Z " fill="#FCFCFC" transform="translate(624,29)"/>
<path d="M0,0 L62,0 L62,1 L63,1 L63,12 L62,12 L62,13 L61,13 L61,14 L39,14 L39,55 L37,55 L37,56 L25,56 L25,55 L23,55 L23,54 L22,54 L22,52 L23,52 L23,14 L1,14 L1,13 L0,13 L0,12 L-1,12 L-1,1 L0,1 Z " fill="#FBFBFB" transform="translate(758,29)"/>
<path d="M0,0 L14,0 L14,1 L16,1 L16,42 L53,42 L53,43 L54,43 L54,54 L53,54 L53,55 L52,55 L52,56 L2,56 L2,55 L-1,55 L-1,1 L0,1 Z " fill="#F7F7F7" transform="translate(563,29)"/>
<path d="M0,0 L21,0 L21,1 L22,1 L22,2 L23,2 L23,3 L24,3 L24,4 L25,4 L25,5 L27,5 L27,6 L28,6 L28,7 L29,7 L29,8 L30,8 L30,9 L31,9 L31,10 L33,10 L33,11 L34,11 L34,12 L35,12 L35,13 L36,13 L36,14 L38,14 L38,15 L39,15 L39,16 L40,16 L40,17 L41,17 L41,18 L42,18 L42,19 L44,19 L44,20 L45,20 L45,21 L46,21 L46,22 L47,22 L47,23 L49,23 L49,24 L50,24 L50,25 L51,25 L51,26 L52,26 L52,27 L53,27 L53,28 L55,28 L55,29 L56,29 L56,30 L57,30 L57,31 L58,31 L58,32 L60,32 L60,33 L61,33 L61,34 L62,34 L62,35 L63,35 L63,36 L64,36 L64,37 L66,37 L66,38 L67,38 L67,39 L68,39 L68,40 L69,40 L69,41 L71,41 L71,42 L72,42 L72,43 L73,43 L73,44 L74,44 L74,45 L75,45 L75,46 L77,46 L77,47 L78,47 L78,48 L79,48 L79,49 L80,49 L80,50 L81,50 L81,65 L80,65 L80,66 L20,66 L20,84 L19,84 L19,85 L0,85 L0,84 L-1,84 L-1,66 L-16,66 L-16,84 L-17,84 L-17,85 L-37,85 L-37,84 L-38,84 L-38,81 L-37,81 L-37,21 L-54,21 L-54,20 L-55,20 L-55,17 L-54,17 L-54,10 L-55,10 L-55,7 L-54,7 L-54,6 L-50,6 L-50,5 L-43,5 L-43,4 L-37,4 L-37,3 L-30,3 L-30,2 L-23,2 L-23,1 L-17,1 L-17,2 L-16,2 L-16,49 L-1,49 L-1,1 L0,1 Z M1,2 L1,51 L-18,51 L-18,3 L-23,3 L-23,4 L-30,4 L-30,5 L-36,5 L-36,6 L-43,6 L-43,7 L-50,7 L-50,8 L-53,8 L-53,19 L-35,19 L-35,20 L-36,20 L-36,83 L-18,83 L-18,64 L1,64 L1,83 L19,83 L19,82 L18,82 L18,64 L79,64 L79,50 L77,50 L77,49 L76,49 L76,48 L75,48 L75,47 L74,47 L74,46 L72,46 L72,45 L71,45 L71,44 L70,44 L70,43 L69,43 L69,42 L67,42 L67,41 L66,41 L66,40 L65,40 L65,39 L64,39 L64,38 L63,38 L63,37 L61,37 L61,36 L60,36 L60,35 L59,35 L59,34 L58,34 L58,33 L56,33 L56,32 L55,32 L55,31 L54,31 L54,30 L53,30 L53,29 L51,29 L51,28 L50,28 L50,27 L49,27 L49,26 L48,26 L48,25 L47,25 L47,24 L45,24 L45,23 L44,23 L44,22 L43,22 L43,21 L42,21 L42,20 L40,20 L40,19 L39,19 L39,18 L38,18 L38,17 L37,17 L37,16 L36,16 L36,15 L34,15 L34,14 L33,14 L33,13 L32,13 L32,12 L31,12 L31,11 L29,11 L29,10 L28,10 L28,9 L27,9 L27,8 L26,8 L26,7 L25,7 L25,6 L23,6 L23,5 L22,5 L22,4 L21,4 L21,3 L20,3 L20,2 Z " fill="#000000" transform="translate(496,118)"/>
<path d="M0,0 L91,0 L91,1 L94,1 L94,2 L96,2 L96,3 L97,3 L97,4 L98,4 L98,6 L99,6 L99,9 L100,9 L100,28 L99,28 L99,31 L98,31 L98,32 L97,32 L97,33 L96,33 L96,34 L95,34 L95,35 L93,35 L93,36 L86,36 L86,37 L87,37 L87,38 L88,38 L88,39 L89,39 L89,40 L91,40 L91,41 L92,41 L92,42 L93,42 L93,43 L94,43 L94,44 L95,44 L95,45 L97,45 L97,46 L98,46 L98,47 L99,47 L99,48 L100,48 L100,49 L101,49 L101,50 L103,50 L103,51 L105,51 L105,55 L103,55 L103,56 L85,56 L85,55 L83,55 L83,54 L82,54 L82,53 L81,53 L81,52 L80,52 L80,51 L79,51 L79,50 L78,50 L78,49 L77,49 L77,48 L76,48 L76,47 L75,47 L75,46 L74,46 L74,45 L73,45 L73,44 L72,44 L72,43 L71,43 L71,42 L70,42 L70,41 L68,41 L68,39 L67,39 L67,38 L65,38 L65,36 L56,36 L56,37 L57,37 L57,51 L56,51 L56,52 L57,52 L57,53 L56,53 L56,55 L54,55 L54,56 L0,56 L0,55 L-2,55 L-2,43 L-1,43 L-1,42 L39,42 L39,33 L16,33 L16,32 L15,32 L15,22 L16,22 L16,20 L38,20 L38,21 L39,21 L39,13 L-1,13 L-1,12 L-2,12 L-2,1 L0,1 Z M0,2 L0,12 L41,12 L41,22 L17,22 L17,31 L41,31 L41,44 L-1,44 L-1,54 L55,54 L55,35 L66,35 L66,36 L67,36 L67,37 L68,37 L68,38 L69,38 L69,39 L70,39 L70,40 L71,40 L71,41 L72,41 L72,42 L73,42 L73,43 L74,43 L74,44 L76,44 L76,45 L77,45 L77,47 L79,47 L79,48 L80,48 L80,49 L81,49 L81,50 L82,50 L82,51 L83,51 L83,52 L84,52 L84,53 L85,53 L85,54 L103,54 L103,52 L101,52 L101,51 L100,51 L100,50 L99,50 L99,49 L97,49 L97,48 L96,48 L96,47 L95,47 L95,46 L94,46 L94,45 L92,45 L92,44 L91,44 L91,43 L90,43 L90,42 L89,42 L89,41 L87,41 L87,40 L86,40 L86,39 L85,39 L85,38 L84,38 L84,37 L82,37 L82,36 L81,36 L81,35 L80,35 L80,34 L93,34 L93,33 L95,33 L95,32 L96,32 L96,31 L97,31 L97,29 L98,29 L98,8 L97,8 L97,6 L96,6 L96,5 L95,5 L95,4 L94,4 L94,3 L91,3 L91,2 Z " fill="#010101" transform="translate(827,29)"/>
<path d="M0,0 L91,0 L91,1 L94,1 L94,2 L96,2 L96,3 L97,3 L97,4 L98,4 L98,5 L99,5 L99,7 L100,7 L100,30 L99,30 L99,32 L98,32 L98,33 L97,33 L97,34 L95,34 L95,35 L94,35 L94,36 L86,36 L86,37 L87,37 L87,38 L89,38 L89,39 L90,39 L90,40 L91,40 L91,41 L92,41 L92,42 L93,42 L93,43 L94,43 L94,44 L96,44 L96,45 L97,45 L97,46 L98,46 L98,47 L99,47 L99,48 L101,48 L101,49 L102,49 L102,50 L104,50 L104,51 L105,51 L105,52 L106,52 L106,53 L105,53 L105,55 L103,55 L103,56 L86,56 L86,55 L84,55 L84,54 L83,54 L83,53 L82,53 L82,52 L81,52 L81,51 L80,51 L80,50 L79,50 L79,49 L78,49 L78,48 L76,48 L76,47 L75,47 L75,46 L74,46 L74,45 L73,45 L73,44 L72,44 L72,43 L71,43 L71,42 L70,42 L70,41 L69,41 L69,40 L68,40 L68,39 L67,39 L67,38 L66,38 L66,37 L65,37 L65,36 L57,36 L57,55 L54,55 L54,56 L1,56 L1,55 L-2,55 L-2,43 L-1,43 L-1,42 L39,42 L39,33 L17,33 L17,32 L15,32 L15,29 L16,29 L16,25 L15,25 L15,22 L16,22 L16,21 L17,21 L17,20 L39,20 L39,13 L-1,13 L-1,3 L-2,3 L-2,2 L-1,2 L-1,1 L0,1 Z M0,2 L0,12 L41,12 L41,22 L18,22 L18,23 L17,23 L17,31 L41,31 L41,44 L0,44 L0,54 L55,54 L55,35 L66,35 L66,36 L67,36 L67,37 L68,37 L68,38 L69,38 L69,39 L70,39 L70,40 L72,40 L72,41 L73,41 L73,42 L74,42 L74,43 L75,43 L75,44 L76,44 L76,45 L77,45 L77,46 L78,46 L78,47 L79,47 L79,48 L80,48 L80,49 L81,49 L81,50 L82,50 L82,51 L83,51 L83,52 L85,52 L85,54 L103,54 L103,52 L101,52 L101,51 L100,51 L100,50 L99,50 L99,49 L98,49 L98,48 L96,48 L96,47 L95,47 L95,46 L94,46 L94,45 L93,45 L93,44 L92,44 L92,43 L91,43 L91,42 L89,42 L89,41 L88,41 L88,40 L87,40 L87,39 L86,39 L86,38 L84,38 L84,37 L83,37 L83,36 L82,36 L82,35 L81,35 L81,34 L93,34 L93,33 L95,33 L95,32 L96,32 L96,31 L97,31 L97,29 L98,29 L98,28 L99,28 L99,8 L98,8 L98,7 L97,7 L97,6 L96,6 L96,5 L95,5 L95,4 L94,4 L94,3 L91,3 L91,2 Z " fill="#010101" transform="translate(374,29)"/>
<path d="M0,0 L40,0 L40,1 L43,1 L43,2 L45,2 L45,3 L46,3 L46,4 L47,4 L47,6 L48,6 L48,9 L49,9 L49,16 L48,16 L48,17 L45,17 L45,18 L40,18 L40,19 L35,19 L35,18 L34,18 L34,14 L5,14 L5,20 L39,20 L39,21 L44,21 L44,22 L45,22 L45,23 L47,23 L47,25 L48,25 L48,26 L49,26 L49,29 L50,29 L50,46 L49,46 L49,49 L48,49 L48,51 L47,51 L47,53 L45,53 L45,54 L44,54 L44,55 L40,55 L40,56 L-3,56 L-3,55 L-6,55 L-6,54 L-8,54 L-8,53 L-9,53 L-9,52 L-10,52 L-10,50 L-11,50 L-11,47 L-12,47 L-12,39 L-11,39 L-11,38 L-7,38 L-7,37 L-4,37 L-4,36 L0,36 L0,35 L1,35 L1,36 L2,36 L2,37 L3,37 L3,42 L35,42 L35,35 L3,35 L3,34 L-3,34 L-3,33 L-5,33 L-5,32 L-6,32 L-6,31 L-8,31 L-8,29 L-9,29 L-9,27 L-10,27 L-10,8 L-9,8 L-9,6 L-8,6 L-8,4 L-7,4 L-7,3 L-6,3 L-6,2 L-4,2 L-4,1 L0,1 Z M-1,2 L-1,3 L-4,3 L-4,4 L-5,4 L-5,5 L-6,5 L-6,6 L-7,6 L-7,8 L-8,8 L-8,27 L-7,27 L-7,29 L-6,29 L-6,30 L-5,30 L-5,31 L-2,31 L-2,32 L-1,32 L-1,33 L36,33 L36,44 L1,44 L1,38 L-6,38 L-6,39 L-10,39 L-10,49 L-9,49 L-9,50 L-8,50 L-8,51 L-7,51 L-7,52 L-6,52 L-6,53 L-4,53 L-4,54 L42,54 L42,53 L43,53 L43,52 L45,52 L45,51 L46,51 L46,49 L47,49 L47,47 L48,47 L48,28 L47,28 L47,26 L46,26 L46,25 L45,25 L45,24 L43,24 L43,23 L40,23 L40,22 L3,22 L3,12 L36,12 L36,17 L40,17 L40,16 L47,16 L47,7 L46,7 L46,6 L45,6 L45,5 L44,5 L44,4 L43,4 L43,3 L40,3 L40,2 Z " fill="#000000" transform="translate(702,29)"/>
<path d="M0,0 L14,0 L14,1 L15,1 L15,2 L16,2 L16,5 L17,5 L17,7 L18,7 L18,10 L19,10 L19,13 L20,13 L20,16 L21,16 L21,17 L22,17 L22,21 L23,21 L23,23 L24,23 L24,25 L25,25 L25,28 L26,28 L26,30 L27,30 L27,27 L28,27 L28,24 L29,24 L29,21 L30,21 L30,19 L31,19 L31,17 L32,17 L32,14 L33,14 L33,12 L34,12 L34,9 L35,9 L35,7 L36,7 L36,3 L37,3 L37,1 L38,1 L38,0 L49,0 L49,1 L50,1 L50,2 L51,2 L51,5 L52,5 L52,7 L53,7 L53,9 L54,9 L54,12 L55,12 L55,15 L56,15 L56,17 L57,17 L57,20 L58,20 L58,22 L59,22 L59,24 L60,24 L60,27 L61,27 L61,30 L62,30 L62,28 L63,28 L63,26 L64,26 L64,22 L65,22 L65,20 L66,20 L66,17 L67,17 L67,14 L68,14 L68,11 L69,11 L69,9 L70,9 L70,6 L71,6 L71,2 L72,2 L72,1 L73,1 L73,0 L86,0 L86,1 L88,1 L88,4 L87,4 L87,5 L86,5 L86,7 L85,7 L85,11 L84,11 L84,12 L83,12 L83,15 L82,15 L82,18 L81,18 L81,20 L80,20 L80,23 L79,23 L79,26 L78,26 L78,29 L77,29 L77,31 L76,31 L76,33 L75,33 L75,36 L74,36 L74,39 L73,39 L73,41 L72,41 L72,43 L71,43 L71,47 L70,47 L70,49 L69,49 L69,51 L68,51 L68,55 L65,55 L65,56 L57,56 L57,55 L55,55 L55,54 L54,54 L54,51 L53,51 L53,48 L52,48 L52,46 L51,46 L51,44 L50,44 L50,41 L49,41 L49,38 L48,38 L48,36 L47,36 L47,33 L46,33 L46,30 L45,30 L45,28 L44,28 L44,26 L42,26 L42,28 L41,28 L41,31 L40,31 L40,33 L39,33 L39,36 L38,36 L38,38 L37,38 L37,40 L36,40 L36,44 L35,44 L35,46 L34,46 L34,48 L33,48 L33,51 L32,51 L32,54 L31,54 L31,55 L29,55 L29,56 L21,56 L21,55 L18,55 L18,52 L17,52 L17,50 L16,50 L16,48 L15,48 L15,44 L14,44 L14,42 L13,42 L13,39 L12,39 L12,37 L11,37 L11,34 L10,34 L10,31 L9,31 L9,29 L8,29 L8,26 L7,26 L7,24 L6,24 L6,21 L5,21 L5,19 L4,19 L4,16 L3,16 L3,13 L2,13 L2,11 L1,11 L1,8 L0,8 L0,5 L-1,5 L-1,4 L-2,4 L-2,1 L0,1 Z M0,2 L0,3 L1,3 L1,5 L2,5 L2,7 L3,7 L3,10 L4,10 L4,14 L5,14 L5,17 L6,17 L6,18 L7,18 L7,21 L8,21 L8,25 L10,25 L10,28 L11,28 L11,32 L12,32 L12,35 L13,35 L13,36 L14,36 L14,39 L15,39 L15,43 L16,43 L16,44 L17,44 L17,46 L18,46 L18,49 L19,49 L19,53 L20,53 L20,54 L29,54 L29,53 L30,53 L30,50 L31,50 L31,48 L32,48 L32,46 L33,46 L33,42 L34,42 L34,40 L35,40 L35,39 L36,39 L36,35 L37,35 L37,32 L39,32 L39,29 L40,29 L40,25 L41,25 L41,22 L42,22 L42,21 L44,21 L44,23 L45,23 L45,25 L46,25 L46,28 L47,28 L47,32 L48,32 L48,34 L49,34 L49,35 L50,35 L50,38 L51,38 L51,40 L52,40 L52,42 L53,42 L53,46 L54,46 L54,48 L55,48 L55,50 L56,50 L56,54 L66,54 L66,53 L67,53 L67,49 L68,49 L68,46 L69,46 L69,43 L70,43 L70,42 L71,42 L71,38 L72,38 L72,35 L74,35 L74,31 L75,31 L75,27 L76,27 L76,25 L77,25 L77,23 L78,23 L78,20 L79,20 L79,18 L80,18 L80,15 L81,15 L81,12 L82,12 L82,10 L83,10 L83,7 L84,7 L84,5 L85,5 L85,2 L74,2 L74,3 L73,3 L73,6 L72,6 L72,8 L71,8 L71,11 L70,11 L70,14 L69,14 L69,15 L68,15 L68,19 L67,19 L67,22 L66,22 L66,23 L65,23 L65,27 L64,27 L64,30 L63,30 L63,34 L61,34 L61,31 L60,31 L60,28 L59,28 L59,27 L58,27 L58,24 L57,24 L57,21 L56,21 L56,18 L55,18 L55,17 L54,17 L54,14 L53,14 L53,11 L52,11 L52,10 L51,10 L51,7 L50,7 L50,4 L49,4 L49,2 L39,2 L39,5 L38,5 L38,7 L37,7 L37,8 L36,8 L36,11 L35,11 L35,14 L34,14 L34,15 L33,15 L33,19 L32,19 L32,22 L31,22 L31,24 L30,24 L30,26 L29,26 L29,29 L28,29 L28,31 L27,31 L27,33 L25,33 L25,30 L24,30 L24,29 L23,29 L23,27 L22,27 L22,22 L21,22 L21,21 L20,21 L20,19 L19,19 L19,15 L18,15 L18,11 L17,11 L17,10 L16,10 L16,7 L15,7 L15,4 L14,4 L14,2 Z " fill="#181818" transform="translate(79,29)"/>
<path d="M0,0 L41,0 L41,1 L44,1 L44,2 L46,2 L46,3 L48,3 L48,5 L49,5 L49,7 L50,7 L50,12 L51,12 L51,21 L49,21 L49,22 L43,22 L43,23 L35,23 L35,22 L34,22 L34,14 L7,14 L7,42 L34,42 L34,32 L35,32 L35,31 L41,31 L41,32 L46,32 L46,33 L49,33 L49,34 L51,34 L51,46 L50,46 L50,50 L49,50 L49,51 L48,51 L48,53 L46,53 L46,54 L45,54 L45,55 L41,55 L41,56 L0,56 L0,55 L-4,55 L-4,54 L-6,54 L-6,53 L-7,53 L-7,52 L-8,52 L-8,50 L-9,50 L-9,47 L-10,47 L-10,9 L-9,9 L-9,5 L-8,5 L-8,4 L-7,4 L-7,3 L-6,3 L-6,2 L-4,2 L-4,1 L0,1 Z M-1,2 L-1,3 L-4,3 L-4,4 L-5,4 L-5,5 L-6,5 L-6,6 L-7,6 L-7,7 L-8,7 L-8,49 L-6,49 L-6,51 L-5,51 L-5,52 L-3,52 L-3,53 L-2,53 L-2,54 L43,54 L43,53 L44,53 L44,52 L46,52 L46,51 L47,51 L47,49 L48,49 L48,47 L49,47 L49,35 L46,35 L46,34 L40,34 L40,33 L36,33 L36,44 L5,44 L5,12 L36,12 L36,21 L43,21 L43,20 L49,20 L49,10 L48,10 L48,6 L47,6 L47,5 L46,5 L46,4 L45,4 L45,3 L41,3 L41,2 Z " fill="#030303" transform="translate(500,29)"/>
<path d="M0,0 L14,0 L14,1 L15,1 L15,42 L45,42 L45,3 L44,3 L44,2 L45,2 L45,1 L46,1 L46,0 L60,0 L60,1 L61,1 L61,49 L60,49 L60,51 L59,51 L59,52 L58,52 L58,53 L57,53 L57,54 L55,54 L55,55 L51,55 L51,56 L8,56 L8,55 L5,55 L5,54 L3,54 L3,53 L2,53 L2,52 L1,52 L1,50 L0,50 L0,48 L-1,48 L-1,1 L0,1 Z M1,2 L1,47 L2,47 L2,50 L3,50 L3,51 L4,51 L4,52 L5,52 L5,53 L7,53 L7,54 L54,54 L54,52 L56,52 L56,51 L57,51 L57,50 L58,50 L58,46 L59,46 L59,2 L47,2 L47,44 L13,44 L13,2 Z " fill="#212121" transform="translate(624,29)"/>
<path d="M0,0 L9,0 L9,1 L10,1 L10,2 L11,2 L11,3 L12,3 L12,5 L13,5 L13,6 L15,6 L15,8 L17,8 L17,9 L18,9 L18,11 L19,11 L19,12 L20,12 L20,13 L22,13 L22,15 L23,15 L23,16 L24,16 L24,17 L25,17 L25,18 L26,18 L26,19 L27,19 L27,20 L39,20 L39,1 L40,1 L40,0 L51,0 L51,1 L52,1 L52,55 L50,55 L50,56 L43,56 L43,55 L41,55 L41,54 L40,54 L40,53 L39,53 L39,52 L38,52 L38,51 L37,51 L37,50 L36,50 L36,49 L35,49 L35,48 L34,48 L34,46 L33,46 L33,45 L31,45 L31,44 L30,44 L30,43 L29,43 L29,42 L28,42 L28,41 L27,41 L27,39 L26,39 L26,38 L24,38 L24,36 L23,36 L23,35 L12,35 L12,54 L11,54 L11,55 L9,55 L9,56 L1,56 L1,55 L-1,55 L-1,54 L-2,54 L-2,2 L-1,2 L-1,1 L0,1 Z M0,2 L0,54 L10,54 L10,33 L23,33 L23,34 L24,34 L24,35 L25,35 L25,36 L26,36 L26,37 L27,37 L27,38 L28,38 L28,39 L29,39 L29,40 L30,40 L30,41 L31,41 L31,42 L32,42 L32,43 L33,43 L33,44 L34,44 L34,45 L35,45 L35,46 L36,46 L36,47 L37,47 L37,48 L38,48 L38,49 L39,49 L39,50 L40,50 L40,51 L41,51 L41,52 L42,52 L42,54 L50,54 L50,2 L41,2 L41,22 L27,22 L27,21 L25,21 L25,20 L24,20 L24,18 L23,18 L23,17 L22,17 L22,16 L21,16 L21,15 L20,15 L20,14 L19,14 L19,13 L18,13 L18,12 L17,12 L17,11 L16,11 L16,10 L15,10 L15,9 L14,9 L14,8 L13,8 L13,7 L12,7 L12,6 L11,6 L11,5 L10,5 L10,4 L9,4 L9,3 L8,3 L8,2 Z " fill="#252525" transform="translate(242,29)"/>
<path d="M0,0 L62,0 L62,1 L63,1 L63,12 L62,12 L62,13 L61,13 L61,14 L39,14 L39,55 L37,55 L37,56 L25,56 L25,55 L23,55 L23,54 L22,54 L22,52 L23,52 L23,14 L1,14 L1,13 L0,13 L0,12 L-1,12 L-1,1 L0,1 Z M1,2 L1,12 L25,12 L25,54 L37,54 L37,12 L61,12 L61,2 Z " fill="#090909" transform="translate(758,29)"/>
<path d="M0,0 L48,0 L48,1 L52,1 L52,2 L53,2 L53,3 L55,3 L55,4 L56,4 L56,7 L57,7 L57,11 L58,11 L58,45 L57,45 L57,49 L56,49 L56,51 L55,51 L55,52 L54,52 L54,53 L53,53 L53,54 L51,54 L51,55 L48,55 L48,56 L0,56 L0,55 L-4,55 L-4,54 L-6,54 L-6,53 L-7,53 L-7,52 L-8,52 L-8,51 L-9,51 L-9,49 L-10,49 L-10,7 L-9,7 L-9,5 L-8,5 L-8,4 L-7,4 L-7,3 L-6,3 L-6,2 L-4,2 L-4,1 L0,1 Z M-1,2 L-1,3 L-4,3 L-4,4 L-6,4 L-6,5 L-7,5 L-7,8 L-8,8 L-8,49 L-7,49 L-7,50 L-6,50 L-6,51 L-5,51 L-5,52 L-3,52 L-3,53 L-2,53 L-2,54 L50,54 L50,52 L53,52 L53,51 L54,51 L54,50 L55,50 L55,48 L56,48 L56,8 L55,8 L55,7 L54,7 L54,5 L53,5 L53,4 L52,4 L52,3 L48,3 L48,2 Z " fill="#010101" transform="translate(178,29)"/>
<path d="M0,0 L14,0 L14,1 L16,1 L16,42 L53,42 L53,43 L54,43 L54,54 L53,54 L53,55 L52,55 L52,56 L2,56 L2,55 L-1,55 L-1,1 L0,1 Z M1,2 L1,54 L52,54 L52,44 L14,44 L14,2 Z " fill="#000000" transform="translate(563,29)"/>
<path d="M0,0 L41,0 L41,1 L46,1 L46,2 L49,2 L49,3 L52,3 L52,4 L53,4 L53,5 L55,5 L55,6 L56,6 L56,7 L57,7 L57,8 L58,8 L58,9 L59,9 L59,10 L60,10 L60,11 L61,11 L61,12 L62,12 L62,14 L63,14 L63,16 L64,16 L64,18 L65,18 L65,37 L64,37 L64,39 L63,39 L63,41 L62,41 L62,43 L61,43 L61,45 L60,45 L60,46 L59,46 L59,47 L58,47 L58,48 L57,48 L57,49 L56,49 L56,50 L55,50 L55,51 L53,51 L53,52 L51,52 L51,53 L49,53 L49,54 L45,54 L45,55 L40,55 L40,56 L1,56 L1,55 L-1,55 L-1,54 L-2,54 L-2,51 L-1,51 L-1,4 L-2,4 L-2,1 L0,1 Z M0,2 L0,54 L43,54 L43,53 L44,53 L44,52 L49,52 L49,51 L51,51 L51,50 L52,50 L52,49 L54,49 L54,48 L55,48 L55,47 L57,47 L57,46 L58,46 L58,44 L59,44 L59,42 L60,42 L60,41 L61,41 L61,39 L62,39 L62,35 L63,35 L63,19 L62,19 L62,16 L61,16 L61,14 L60,14 L60,13 L59,13 L59,12 L58,12 L58,10 L57,10 L57,9 L55,9 L55,8 L54,8 L54,7 L53,7 L53,6 L51,6 L51,5 L48,5 L48,4 L46,4 L46,3 L42,3 L42,2 Z " fill="#000000" transform="translate(303,29)"/>
<path d="M0,0 L21,0 L21,1 L22,1 L22,2 L23,2 L23,3 L24,3 L24,4 L25,4 L25,5 L27,5 L27,6 L28,6 L28,7 L29,7 L29,8 L30,8 L30,9 L31,9 L31,10 L33,10 L33,11 L34,11 L34,12 L35,12 L35,13 L36,13 L36,14 L38,14 L38,15 L39,15 L39,16 L40,16 L40,17 L41,17 L41,18 L42,18 L42,19 L44,19 L44,20 L45,20 L45,21 L46,21 L46,22 L47,22 L47,23 L49,23 L49,24 L50,24 L50,25 L51,25 L51,26 L52,26 L52,27 L53,27 L53,28 L55,28 L55,29 L56,29 L56,30 L57,30 L57,31 L58,31 L58,32 L60,32 L60,33 L61,33 L61,34 L62,34 L62,35 L63,35 L63,36 L64,36 L64,37 L66,37 L66,38 L67,38 L67,39 L68,39 L68,40 L69,40 L69,41 L71,41 L71,42 L72,42 L72,43 L73,43 L73,44 L74,44 L74,45 L75,45 L75,46 L77,46 L77,47 L78,47 L78,48 L79,48 L79,49 L80,49 L80,50 L81,50 L81,65 L80,65 L80,66 L19,66 L19,82 L18,82 L18,64 L79,64 L79,50 L77,50 L77,49 L76,49 L76,48 L75,48 L75,47 L74,47 L74,46 L72,46 L72,45 L71,45 L71,44 L70,44 L70,43 L69,43 L69,42 L67,42 L67,41 L66,41 L66,40 L65,40 L65,39 L64,39 L64,38 L63,38 L63,37 L61,37 L61,36 L60,36 L60,35 L59,35 L59,34 L58,34 L58,33 L56,33 L56,32 L55,32 L55,31 L54,31 L54,30 L53,30 L53,29 L51,29 L51,28 L50,28 L50,27 L49,27 L49,26 L48,26 L48,25 L47,25 L47,24 L45,24 L45,23 L44,23 L44,22 L43,22 L43,21 L42,21 L42,20 L40,20 L40,19 L39,19 L39,18 L38,18 L38,17 L37,17 L37,16 L36,16 L36,15 L34,15 L34,14 L33,14 L33,13 L32,13 L32,12 L31,12 L31,11 L29,11 L29,10 L28,10 L28,9 L27,9 L27,8 L26,8 L26,7 L25,7 L25,6 L23,6 L23,5 L22,5 L22,4 L21,4 L21,3 L20,3 L20,2 L1,2 L1,3 L-1,3 L-1,1 L0,1 Z " fill="#060606" transform="translate(496,118)"/>
<path d="M0,0 L14,0 L14,1 L15,1 L15,2 L16,2 L16,5 L17,5 L17,7 L18,7 L18,10 L19,10 L19,13 L20,13 L20,16 L21,16 L21,17 L22,17 L22,21 L23,21 L23,23 L24,23 L24,25 L25,25 L25,28 L26,28 L26,30 L27,30 L27,27 L28,27 L28,24 L29,24 L29,21 L30,21 L30,19 L31,19 L31,17 L32,17 L32,14 L33,14 L33,12 L34,12 L34,9 L35,9 L35,7 L36,7 L36,3 L37,3 L37,1 L38,1 L38,0 L49,0 L49,1 L50,1 L50,2 L51,2 L51,5 L52,5 L52,7 L53,7 L53,9 L54,9 L54,12 L55,12 L55,15 L56,15 L56,17 L57,17 L57,20 L58,20 L58,22 L59,22 L59,24 L60,24 L60,27 L61,27 L61,30 L62,30 L62,28 L63,28 L63,26 L64,26 L64,22 L65,22 L65,20 L66,20 L66,17 L67,17 L67,14 L68,14 L68,11 L69,11 L69,9 L70,9 L70,6 L71,6 L71,2 L72,2 L72,1 L73,1 L73,0 L85,0 L85,2 L74,2 L74,3 L73,3 L73,6 L72,6 L72,8 L71,8 L71,11 L70,11 L70,14 L69,14 L69,15 L68,15 L68,19 L67,19 L67,22 L66,22 L66,23 L65,23 L65,27 L64,27 L64,30 L63,30 L63,34 L61,34 L61,31 L60,31 L60,28 L59,28 L59,27 L58,27 L58,24 L57,24 L57,21 L56,21 L56,18 L55,18 L55,17 L54,17 L54,14 L53,14 L53,11 L52,11 L52,10 L51,10 L51,7 L50,7 L50,4 L49,4 L49,2 L39,2 L39,5 L38,5 L38,7 L37,7 L37,8 L36,8 L36,11 L35,11 L35,14 L34,14 L34,15 L33,15 L33,19 L32,19 L32,22 L31,22 L31,24 L30,24 L30,26 L29,26 L29,29 L28,29 L28,31 L27,31 L27,33 L25,33 L25,30 L24,30 L24,29 L23,29 L23,27 L22,27 L22,22 L21,22 L21,21 L20,21 L20,19 L19,19 L19,15 L18,15 L18,11 L17,11 L17,10 L16,10 L16,7 L15,7 L15,4 L14,4 L14,2 L0,2 L0,3 L-1,3 L-1,2 L-2,2 L-2,1 L0,1 Z " fill="#0A0A0A" transform="translate(79,29)"/>
<path d="M0,0 L38,0 L38,32 L0,32 Z M1,1 L1,2 L2,2 L2,1 Z M2,2 L2,30 L36,30 L36,2 Z " fill="#0B0B0B" transform="translate(183,41)"/>
<path d="M0,0 L9,0 L9,1 L10,1 L10,2 L11,2 L11,3 L12,3 L12,5 L13,5 L13,6 L15,6 L15,8 L17,8 L17,9 L18,9 L18,11 L19,11 L19,12 L20,12 L20,13 L22,13 L22,15 L23,15 L23,17 L22,17 L22,16 L21,16 L21,15 L20,15 L20,14 L19,14 L19,13 L18,13 L18,12 L17,12 L17,11 L16,11 L16,10 L15,10 L15,9 L14,9 L14,8 L13,8 L13,7 L12,7 L12,6 L11,6 L11,5 L10,5 L10,4 L9,4 L9,3 L8,3 L8,2 L0,2 L0,54 L10,54 L10,33 L23,33 L23,34 L24,34 L24,35 L25,35 L25,36 L23,36 L23,35 L12,35 L12,54 L11,54 L11,55 L9,55 L9,56 L1,56 L1,55 L-1,55 L-1,54 L-2,54 L-2,2 L-1,2 L-1,1 L0,1 Z " fill="#000000" transform="translate(242,29)"/>
<path d="M0,0 L1,0 L1,1 L2,1 L2,2 L3,2 L3,3 L4,3 L4,4 L5,4 L5,5 L7,5 L7,6 L8,6 L8,7 L9,7 L9,8 L10,8 L10,9 L12,9 L12,10 L13,10 L13,11 L14,11 L14,12 L15,12 L15,13 L16,13 L16,14 L18,14 L18,15 L19,15 L19,16 L20,16 L20,17 L21,17 L21,18 L23,18 L23,19 L24,19 L24,20 L25,20 L25,21 L26,21 L26,22 L28,22 L28,23 L29,23 L29,24 L30,24 L30,25 L31,25 L31,26 L33,26 L33,27 L34,27 L34,28 L35,28 L35,29 L36,29 L36,30 L38,30 L38,31 L39,31 L39,32 L40,32 L40,33 L41,33 L41,34 L43,34 L43,35 L0,35 Z M2,5 L2,33 L37,33 L37,32 L36,32 L36,31 L34,31 L34,30 L33,30 L33,29 L32,29 L32,28 L31,28 L31,27 L30,27 L30,26 L28,26 L28,25 L27,25 L27,24 L26,24 L26,23 L25,23 L25,22 L23,22 L23,21 L22,21 L22,20 L21,20 L21,19 L20,19 L20,18 L18,18 L18,17 L17,17 L17,16 L16,16 L16,15 L15,15 L15,14 L13,14 L13,13 L12,13 L12,12 L11,12 L11,11 L10,11 L10,10 L8,10 L8,9 L7,9 L7,8 L6,8 L6,7 L5,7 L5,6 L3,6 L3,5 Z " fill="#0A0A0A" transform="translate(514,134)"/>
<path d="M0,0 L26,0 L26,1 L30,1 L30,2 L32,2 L32,3 L33,3 L33,4 L34,4 L34,5 L35,5 L35,7 L36,7 L36,8 L37,8 L37,22 L36,22 L36,23 L35,23 L35,26 L34,26 L34,27 L33,27 L33,28 L32,28 L32,29 L29,29 L29,30 L24,30 L24,31 L21,31 L21,32 L0,32 Z M2,2 L2,30 L22,30 L22,29 L27,29 L27,28 L29,28 L29,27 L31,27 L31,26 L32,26 L32,25 L33,25 L33,24 L34,24 L34,21 L35,21 L35,9 L34,9 L34,7 L33,7 L33,5 L31,5 L31,4 L30,4 L30,3 L27,3 L27,2 Z " fill="#000000" transform="translate(316,41)"/>
<path d="M0,0 L33,0 L33,1 L32,1 L32,5 L31,5 L31,2 L2,2 L2,8 L36,8 L36,9 L41,9 L41,10 L42,10 L42,11 L44,11 L44,13 L45,13 L45,14 L46,14 L46,17 L47,17 L47,34 L46,34 L46,37 L45,37 L45,39 L44,39 L44,41 L42,41 L42,42 L41,42 L41,43 L39,43 L39,41 L40,41 L40,40 L42,40 L42,39 L43,39 L43,37 L44,37 L44,35 L45,35 L45,16 L44,16 L44,14 L43,14 L43,13 L42,13 L42,12 L40,12 L40,11 L37,11 L37,10 L0,10 Z " fill="#1E1E1E" transform="translate(705,41)"/>
<path d="M0,0 L40,0 L40,1 L43,1 L43,2 L45,2 L45,3 L46,3 L46,4 L47,4 L47,6 L48,6 L48,9 L49,9 L49,16 L48,16 L48,17 L45,17 L45,18 L40,18 L40,19 L35,19 L35,18 L34,18 L34,17 L35,17 L35,13 L36,13 L36,17 L40,17 L40,16 L47,16 L47,7 L46,7 L46,6 L45,6 L45,5 L44,5 L44,4 L43,4 L43,3 L40,3 L40,2 L-1,2 L-1,3 L-4,3 L-4,4 L-5,4 L-5,5 L-6,5 L-6,6 L-7,6 L-7,8 L-8,8 L-8,27 L-7,27 L-7,29 L-6,29 L-6,30 L-5,30 L-5,31 L-2,31 L-2,32 L-1,32 L-1,34 L-3,34 L-3,33 L-5,33 L-5,32 L-6,32 L-6,31 L-8,31 L-8,29 L-9,29 L-9,27 L-10,27 L-10,8 L-9,8 L-9,6 L-8,6 L-8,4 L-7,4 L-7,3 L-6,3 L-6,2 L-4,2 L-4,1 L0,1 Z " fill="#010101" transform="translate(702,29)"/>
<path d="M0,0 L1,0 L1,8 L2,8 L2,10 L-40,10 L-40,20 L15,20 L15,22 L-39,22 L-39,21 L-41,21 L-41,9 L-40,9 L-40,8 L0,8 Z " fill="#000000" transform="translate(866,63)"/>
<path d="M0,0 L7,0 L7,1 L6,1 L6,3 L7,3 L7,4 L8,4 L8,5 L9,5 L9,6 L11,6 L11,7 L12,7 L12,8 L13,8 L13,9 L14,9 L14,10 L15,10 L15,11 L17,11 L17,12 L18,12 L18,13 L19,13 L19,14 L20,14 L20,15 L21,15 L21,16 L23,16 L23,17 L25,17 L25,21 L23,21 L23,22 L5,22 L5,21 L3,21 L3,20 L2,20 L2,19 L1,19 L1,18 L0,18 L0,17 L-1,17 L-1,16 L-2,16 L-2,15 L-3,15 L-3,14 L-4,14 L-4,13 L-5,13 L-5,12 L-6,12 L-6,11 L-7,11 L-7,10 L-8,10 L-8,9 L-9,9 L-9,8 L-10,8 L-10,7 L-12,7 L-12,5 L-13,5 L-13,4 L-15,4 L-15,2 L-24,2 L-24,3 L-23,3 L-23,17 L-24,17 L-24,18 L-23,18 L-23,19 L-24,19 L-24,21 L-26,21 L-26,20 L-25,20 L-25,1 L-14,1 L-14,2 L-13,2 L-13,3 L-12,3 L-12,4 L-11,4 L-11,5 L-10,5 L-10,6 L-9,6 L-9,7 L-8,7 L-8,8 L-7,8 L-7,9 L-6,9 L-6,10 L-4,10 L-4,11 L-3,11 L-3,13 L-1,13 L-1,14 L0,14 L0,15 L1,15 L1,16 L2,16 L2,17 L3,17 L3,18 L4,18 L4,19 L5,19 L5,20 L23,20 L23,18 L21,18 L21,17 L20,17 L20,16 L19,16 L19,15 L17,15 L17,14 L16,14 L16,13 L15,13 L15,12 L14,12 L14,11 L12,11 L12,10 L11,10 L11,9 L10,9 L10,8 L9,8 L9,7 L7,7 L7,6 L6,6 L6,5 L5,5 L5,4 L4,4 L4,3 L2,3 L2,2 L1,2 L1,1 L0,1 Z " fill="#010101" transform="translate(907,63)"/>
<path d="M0,0 L6,0 L6,1 L5,1 L5,3 L6,3 L6,4 L8,4 L8,5 L9,5 L9,6 L10,6 L10,7 L11,7 L11,8 L12,8 L12,9 L13,9 L13,10 L15,10 L15,11 L16,11 L16,12 L17,12 L17,13 L18,13 L18,14 L20,14 L20,15 L21,15 L21,16 L23,16 L23,17 L24,17 L24,18 L25,18 L25,19 L24,19 L24,21 L22,21 L22,22 L5,22 L5,21 L3,21 L3,20 L2,20 L2,19 L1,19 L1,18 L0,18 L0,17 L-1,17 L-1,16 L-2,16 L-2,15 L-3,15 L-3,14 L-5,14 L-5,13 L-6,13 L-6,12 L-7,12 L-7,11 L-8,11 L-8,10 L-9,10 L-9,9 L-10,9 L-10,8 L-11,8 L-11,7 L-12,7 L-12,6 L-13,6 L-13,5 L-14,5 L-14,4 L-15,4 L-15,3 L-16,3 L-16,2 L-24,2 L-24,21 L-27,21 L-27,20 L-26,20 L-26,1 L-15,1 L-15,2 L-14,2 L-14,3 L-13,3 L-13,4 L-12,4 L-12,5 L-11,5 L-11,6 L-9,6 L-9,7 L-8,7 L-8,8 L-7,8 L-7,9 L-6,9 L-6,10 L-5,10 L-5,11 L-4,11 L-4,12 L-3,12 L-3,13 L-2,13 L-2,14 L-1,14 L-1,15 L0,15 L0,16 L1,16 L1,17 L2,17 L2,18 L4,18 L4,20 L22,20 L22,18 L20,18 L20,17 L19,17 L19,16 L18,16 L18,15 L17,15 L17,14 L15,14 L15,13 L14,13 L14,12 L13,12 L13,11 L12,11 L12,10 L11,10 L11,9 L10,9 L10,8 L8,8 L8,7 L7,7 L7,6 L6,6 L6,5 L5,5 L5,4 L3,4 L3,3 L2,3 L2,2 L1,2 L1,1 L0,1 Z " fill="#080808" transform="translate(455,63)"/>
<path d="M0,0 L14,0 L14,1 L15,1 L15,49 L14,49 L14,51 L13,51 L13,52 L12,52 L12,53 L11,53 L11,54 L9,54 L9,53 L8,53 L8,52 L10,52 L10,51 L11,51 L11,50 L12,50 L12,46 L13,46 L13,2 L1,2 L1,44 L0,44 L0,3 L-2,3 L-2,2 L-1,2 L-1,1 L0,1 Z " fill="#3D3D3D" transform="translate(670,29)"/>
<path d="M0,0 L1,0 L1,11 L25,11 L25,53 L37,53 L37,55 L25,55 L25,54 L23,54 L23,53 L22,53 L22,51 L23,51 L23,13 L1,13 L1,12 L0,12 L0,11 L-1,11 L-1,1 L0,1 Z " fill="#1A1A1A" transform="translate(758,30)"/>
<path d="M0,0 L14,0 L14,1 L15,1 L15,42 L14,42 L14,2 L1,2 L1,54 L2,54 L2,55 L-1,55 L-1,1 L0,1 Z " fill="#1F1F1F" transform="translate(563,29)"/>
<path d="M0,0 L1,0 L1,42 L2,42 L2,45 L3,45 L3,48 L4,48 L4,49 L5,49 L5,50 L6,50 L6,51 L8,51 L8,52 L55,52 L55,51 L56,51 L56,53 L52,53 L52,54 L9,54 L9,53 L6,53 L6,52 L4,52 L4,51 L3,51 L3,50 L2,50 L2,48 L1,48 L1,46 L0,46 Z " fill="#000000" transform="translate(623,31)"/>
<path d="M0,0 L2,0 L2,10 L-22,10 L-22,19 L2,19 L2,30 L1,30 L1,22 L0,22 L0,21 L-23,21 L-23,20 L-24,20 L-24,10 L-23,10 L-23,8 L-1,8 L-1,9 L0,9 Z " fill="#0D0D0D" transform="translate(866,41)"/>
<path d="M0,0 L31,0 L31,12 L30,12 L30,13 L28,13 L28,14 L0,14 Z M3,1 L3,12 L27,12 L27,11 L30,11 L30,2 L28,2 L28,1 Z " fill="#252525" transform="translate(881,41)"/>
<path d="M0,0 L30,0 L30,1 L31,1 L31,12 L29,12 L29,13 L26,13 L26,14 L0,14 Z M2,1 L2,12 L26,12 L26,11 L29,11 L29,2 L27,2 L27,1 Z " fill="#252525" transform="translate(429,41)"/>
<path d="M0,0 L1,0 L1,1 L0,1 Z M-4,1 L0,1 L0,2 L-1,2 L-1,3 L-4,3 L-4,4 L-6,4 L-6,5 L-7,5 L-7,8 L-8,8 L-8,49 L-7,49 L-7,50 L-6,50 L-6,51 L-5,51 L-5,52 L-3,52 L-3,53 L-2,53 L-2,55 L-4,55 L-4,54 L-6,54 L-6,53 L-7,53 L-7,52 L-8,52 L-8,51 L-9,51 L-9,49 L-10,49 L-10,7 L-9,7 L-9,5 L-8,5 L-8,4 L-7,4 L-7,3 L-6,3 L-6,2 L-4,2 Z " fill="#212121" transform="translate(178,29)"/>
<path d="M0,0 L12,0 L12,2 L1,2 L1,3 L0,3 L0,6 L-1,6 L-1,8 L-2,8 L-2,11 L-3,11 L-3,14 L-4,14 L-4,15 L-5,15 L-5,19 L-6,19 L-6,22 L-7,22 L-7,23 L-8,23 L-8,27 L-9,27 L-9,30 L-10,30 L-10,34 L-12,34 L-12,31 L-13,31 L-13,28 L-14,28 L-14,27 L-15,27 L-15,24 L-16,24 L-16,21 L-17,21 L-17,18 L-18,18 L-18,17 L-19,17 L-19,14 L-20,14 L-20,11 L-19,11 L-19,12 L-18,12 L-18,15 L-17,15 L-17,17 L-16,17 L-16,20 L-15,20 L-15,22 L-14,22 L-14,24 L-13,24 L-13,27 L-12,27 L-12,30 L-11,30 L-11,28 L-10,28 L-10,26 L-9,26 L-9,22 L-8,22 L-8,20 L-7,20 L-7,17 L-6,17 L-6,14 L-5,14 L-5,11 L-4,11 L-4,9 L-3,9 L-3,6 L-2,6 L-2,2 L-1,2 L-1,1 L0,1 Z " fill="#020202" transform="translate(152,29)"/>
<path d="M0,0 L1,0 L1,43 L3,43 L3,45 L4,45 L4,46 L6,46 L6,47 L7,47 L7,49 L5,49 L5,48 L3,48 L3,47 L2,47 L2,46 L1,46 L1,44 L0,44 L0,41 L-1,41 L-1,3 L0,3 Z " fill="#0E0E0E" transform="translate(491,35)"/>
<path d="M0,0 L6,0 L6,1 L11,1 L11,2 L14,2 L14,3 L16,3 L16,15 L15,15 L15,19 L14,19 L14,20 L13,20 L13,22 L11,22 L11,23 L10,23 L10,24 L8,24 L8,22 L9,22 L9,21 L11,21 L11,20 L12,20 L12,18 L13,18 L13,16 L14,16 L14,4 L11,4 L11,3 L5,3 L5,2 L1,2 L1,11 L0,11 Z " fill="#151515" transform="translate(535,60)"/>
<path d="M0,0 L1,0 L1,15 L2,15 L2,17 L1,17 L1,19 L0,19 L0,21 L-1,21 L-1,23 L-2,23 L-2,25 L-3,25 L-3,26 L-4,26 L-4,27 L-5,27 L-5,28 L-6,28 L-6,29 L-7,29 L-7,30 L-8,30 L-8,31 L-10,31 L-10,32 L-12,32 L-12,33 L-14,33 L-14,34 L-18,34 L-18,35 L-20,35 L-20,33 L-19,33 L-19,32 L-14,32 L-14,31 L-12,31 L-12,30 L-11,30 L-11,29 L-9,29 L-9,28 L-8,28 L-8,27 L-6,27 L-6,26 L-5,26 L-5,24 L-4,24 L-4,22 L-3,22 L-3,21 L-2,21 L-2,19 L-1,19 L-1,15 L0,15 Z " fill="#141414" transform="translate(366,49)"/>
<path d="M0,0 L3,0 L3,1 L4,1 L4,2 L6,2 L6,4 L7,4 L7,5 L8,5 L8,8 L9,8 L9,25 L8,25 L8,28 L7,28 L7,30 L6,30 L6,32 L4,32 L4,33 L3,33 L3,34 L1,34 L1,32 L2,32 L2,31 L4,31 L4,30 L5,30 L5,28 L6,28 L6,26 L7,26 L7,7 L6,7 L6,5 L5,5 L5,4 L4,4 L4,3 L2,3 L2,2 L0,2 Z " fill="#161616" transform="translate(743,50)"/>
<path d="M0,0 L2,0 L2,20 L-12,20 L-12,19 L-14,19 L-14,18 L-15,18 L-15,16 L-16,16 L-16,14 L-15,14 L-15,15 L-14,15 L-14,16 L-13,16 L-13,17 L-12,17 L-12,18 L0,18 Z " fill="#0E0E0E" transform="translate(281,31)"/>
<path d="M0,0 L1,0 L1,1 L0,1 Z M-2,1 L0,1 L0,3 L-1,3 L-1,4 L-2,4 L-2,5 L-3,5 L-3,7 L-4,7 L-4,26 L-3,26 L-3,28 L-2,28 L-2,29 L-1,29 L-1,30 L2,30 L2,31 L3,31 L3,33 L1,33 L1,32 L-1,32 L-1,31 L-2,31 L-2,30 L-4,30 L-4,28 L-5,28 L-5,26 L-6,26 L-6,7 L-5,7 L-5,5 L-4,5 L-4,3 L-3,3 L-3,2 L-2,2 Z " fill="#1A1A1A" transform="translate(698,30)"/>
<path d="M0,0 L1,0 L1,42 L2,42 L2,45 L3,45 L3,48 L4,48 L4,49 L5,49 L5,50 L6,50 L6,51 L8,51 L8,53 L6,53 L6,52 L4,52 L4,51 L3,51 L3,50 L2,50 L2,48 L1,48 L1,46 L0,46 Z " fill="#000000" transform="translate(623,31)"/>
<path d="M0,0 L3,0 L3,1 L5,1 L5,2 L6,2 L6,3 L7,3 L7,4 L8,4 L8,6 L9,6 L9,7 L10,7 L10,21 L9,21 L9,22 L8,22 L8,25 L7,25 L7,26 L6,26 L6,27 L5,27 L5,28 L2,28 L2,27 L3,27 L3,26 L4,26 L4,25 L5,25 L5,24 L6,24 L6,23 L7,23 L7,20 L8,20 L8,8 L7,8 L7,6 L6,6 L6,4 L4,4 L4,3 L3,3 L3,2 L0,2 Z " fill="#1B1B1B" transform="translate(343,42)"/>
<path d="M0,0 L7,0 L7,1 L6,1 L6,3 L7,3 L7,4 L8,4 L8,5 L9,5 L9,6 L11,6 L11,7 L12,7 L12,8 L13,8 L13,9 L14,9 L14,10 L15,10 L15,11 L17,11 L17,12 L18,12 L18,13 L19,13 L19,14 L20,14 L20,15 L21,15 L21,16 L23,16 L23,17 L25,17 L25,19 L24,19 L24,20 L23,20 L23,18 L21,18 L21,17 L20,17 L20,16 L19,16 L19,15 L17,15 L17,14 L16,14 L16,13 L15,13 L15,12 L14,12 L14,11 L12,11 L12,10 L11,10 L11,9 L10,9 L10,8 L9,8 L9,7 L7,7 L7,6 L6,6 L6,5 L5,5 L5,4 L4,4 L4,3 L2,3 L2,2 L1,2 L1,1 L0,1 Z " fill="#111111" transform="translate(907,63)"/>
<path d="M0,0 L1,0 L1,1 L4,1 L4,2 L5,2 L5,3 L7,3 L7,4 L8,4 L8,5 L9,5 L9,6 L10,6 L10,7 L11,7 L11,8 L12,8 L12,9 L13,9 L13,10 L14,10 L14,12 L15,12 L15,14 L16,14 L16,16 L17,16 L17,33 L16,33 L16,18 L15,18 L15,17 L14,17 L14,14 L13,14 L13,12 L12,12 L12,11 L11,11 L11,10 L10,10 L10,8 L9,8 L9,7 L7,7 L7,6 L6,6 L6,5 L5,5 L5,4 L3,4 L3,3 L0,3 L0,2 L-2,2 L-2,1 L0,1 Z " fill="#181818" transform="translate(351,31)"/>
<path d="M0,0 L6,0 L6,1 L5,1 L5,3 L6,3 L6,4 L8,4 L8,5 L9,5 L9,6 L10,6 L10,7 L11,7 L11,8 L12,8 L12,9 L13,9 L13,10 L15,10 L15,11 L16,11 L16,12 L17,12 L17,13 L18,13 L18,14 L20,14 L20,15 L21,15 L21,16 L23,16 L23,17 L24,17 L24,18 L25,18 L25,19 L23,19 L23,20 L22,20 L22,18 L20,18 L20,17 L19,17 L19,16 L18,16 L18,15 L17,15 L17,14 L15,14 L15,13 L14,13 L14,12 L13,12 L13,11 L12,11 L12,10 L11,10 L11,9 L10,9 L10,8 L8,8 L8,7 L7,7 L7,6 L6,6 L6,5 L5,5 L5,4 L3,4 L3,3 L2,3 L2,2 L1,2 L1,1 L0,1 Z " fill="#141414" transform="translate(455,63)"/>
<path d="M0,0 L2,0 L2,1 L4,1 L4,2 L5,2 L5,3 L6,3 L6,5 L7,5 L7,8 L8,8 L8,15 L7,15 L7,16 L4,16 L4,17 L-1,17 L-1,18 L-6,18 L-6,17 L-7,17 L-7,16 L-6,16 L-6,12 L-5,12 L-5,16 L-1,16 L-1,15 L6,15 L6,6 L5,6 L5,5 L4,5 L4,4 L3,4 L3,3 L2,3 L2,2 L0,2 Z " fill="#0A0A0A" transform="translate(743,30)"/>
<path d="M0,0 L3,0 L3,1 L4,1 L4,12 L2,12 L2,13 L-26,13 L-26,12 L-1,12 L-1,11 L2,11 L2,2 L0,2 Z " fill="#0C0C0C" transform="translate(456,41)"/>
<path d="M0,0 L9,0 L9,1 L10,1 L10,2 L11,2 L11,3 L12,3 L12,5 L13,5 L13,6 L15,6 L15,8 L17,8 L17,9 L18,9 L18,11 L19,11 L19,12 L20,12 L20,13 L22,13 L22,15 L23,15 L23,17 L22,17 L22,16 L21,16 L21,15 L20,15 L20,14 L19,14 L19,13 L18,13 L18,12 L17,12 L17,11 L16,11 L16,10 L15,10 L15,9 L14,9 L14,8 L13,8 L13,7 L12,7 L12,6 L11,6 L11,5 L10,5 L10,4 L9,4 L9,3 L8,3 L8,2 L0,2 Z " fill="#070707" transform="translate(242,29)"/>
<path d="M0,0 L1,0 L1,3 L-6,3 L-6,4 L-10,4 L-10,14 L-9,14 L-9,15 L-8,15 L-8,16 L-7,16 L-7,17 L-6,17 L-6,18 L-4,18 L-4,20 L-6,20 L-6,19 L-8,19 L-8,18 L-9,18 L-9,17 L-10,17 L-10,15 L-11,15 L-11,12 L-12,12 L-12,4 L-11,4 L-11,3 L-7,3 L-7,2 L-4,2 L-4,1 L0,1 Z " fill="#0A0A0A" transform="translate(702,64)"/>
<path d="M0,0 L1,0 L1,1 L3,1 L3,3 L4,3 L4,5 L5,5 L5,8 L6,8 L6,12 L7,12 L7,15 L8,15 L8,16 L9,16 L9,19 L10,19 L10,23 L11,23 L11,27 L10,27 L10,24 L9,24 L9,22 L8,22 L8,19 L7,19 L7,17 L6,17 L6,14 L5,14 L5,11 L4,11 L4,9 L3,9 L3,6 L2,6 L2,3 L1,3 L1,2 L0,2 Z " fill="#0A0A0A" transform="translate(77,31)"/>
<path d="M0,0 L2,0 L2,1 L3,1 L3,2 L4,2 L4,3 L5,3 L5,4 L6,4 L6,5 L7,5 L7,6 L8,6 L8,7 L9,7 L9,8 L10,8 L10,9 L11,9 L11,10 L12,10 L12,11 L13,11 L13,12 L14,12 L14,13 L15,13 L15,14 L16,14 L16,15 L17,15 L17,16 L18,16 L18,18 L19,18 L19,19 L17,19 L17,18 L16,18 L16,17 L15,17 L15,16 L14,16 L14,15 L13,15 L13,14 L12,14 L12,13 L11,13 L11,12 L10,12 L10,10 L9,10 L9,9 L7,9 L7,8 L6,8 L6,7 L5,7 L5,6 L4,6 L4,5 L3,5 L3,3 L2,3 L2,2 L0,2 Z " fill="#0C0C0C" transform="translate(266,65)"/>
<path d="M0,0 L12,0 L12,2 L1,2 L1,3 L0,3 L0,6 L-1,6 L-1,8 L-2,8 L-2,11 L-3,11 L-3,14 L-4,14 L-4,13 L-5,13 L-5,11 L-4,11 L-4,9 L-3,9 L-3,6 L-2,6 L-2,2 L-1,2 L-1,1 L0,1 Z " fill="#0A0A0A" transform="translate(152,29)"/>
<path d="M0,0 L1,0 L1,2 L0,2 L0,4 L-1,4 L-1,7 L-2,7 L-2,10 L-3,10 L-3,11 L-5,11 L-5,12 L-13,12 L-13,11 L-16,11 L-16,10 L-5,10 L-5,9 L-4,9 L-4,6 L-3,6 L-3,4 L-2,4 L-2,2 L-1,2 L-1,1 L0,1 Z " fill="#0C0C0C" transform="translate(113,73)"/>
<path d="M0,0 L1,0 L1,1 L2,1 L2,2 L3,2 L3,3 L4,3 L4,4 L6,4 L6,5 L7,5 L7,7 L9,7 L9,8 L10,8 L10,9 L11,9 L11,10 L12,10 L12,11 L13,11 L13,12 L14,12 L14,13 L15,13 L15,15 L13,15 L13,14 L12,14 L12,13 L11,13 L11,12 L10,12 L10,11 L9,11 L9,10 L8,10 L8,9 L7,9 L7,8 L6,8 L6,7 L5,7 L5,6 L4,6 L4,5 L3,5 L3,4 L2,4 L2,3 L1,3 L1,2 L0,2 Z " fill="#0E0E0E" transform="translate(897,69)"/>
<path d="M0,0 L1,0 L1,2 L2,2 L2,4 L3,4 L3,8 L4,8 L4,10 L5,10 L5,12 L6,12 L6,16 L7,16 L7,17 L5,17 L5,16 L4,16 L4,13 L3,13 L3,10 L2,10 L2,8 L1,8 L1,6 L0,6 L0,3 L-1,3 L-1,2 L0,2 Z " fill="#222222" transform="translate(129,67)"/>
<path d="M0,0 L1,0 L1,15 L2,15 L2,17 L1,17 L1,19 L0,19 L0,21 L-1,21 L-1,23 L-3,23 L-3,24 L-4,24 L-4,22 L-3,22 L-3,21 L-2,21 L-2,19 L-1,19 L-1,15 L0,15 Z " fill="#404040" transform="translate(366,49)"/>
<path d="M0,0 L2,0 L2,2 L1,2 L1,4 L0,4 L0,5 L-1,5 L-1,6 L-3,6 L-3,7 L-4,7 L-4,8 L-12,8 L-12,7 L-11,7 L-11,6 L-5,6 L-5,5 L-3,5 L-3,4 L-2,4 L-2,3 L-1,3 L-1,1 L0,1 Z " fill="#0B0B0B" transform="translate(472,57)"/>
<path d="M0,0 L3,0 L3,2 L1,2 L1,12 L2,12 L2,13 L-1,13 L-1,1 L0,1 Z " fill="#131313" transform="translate(373,71)"/>
<path d="M0,0 L7,0 L7,1 L6,1 L6,3 L7,3 L7,4 L8,4 L8,5 L9,5 L9,6 L10,6 L10,8 L9,8 L9,7 L7,7 L7,6 L6,6 L6,5 L5,5 L5,4 L4,4 L4,3 L2,3 L2,2 L1,2 L1,1 L0,1 Z " fill="#242424" transform="translate(907,63)"/>
<path d="M0,0 L1,0 L1,1 L2,1 L2,2 L3,2 L3,6 L4,6 L4,8 L5,8 L5,10 L6,10 L6,12 L5,12 L5,14 L4,14 L4,12 L3,12 L3,7 L2,7 L2,6 L1,6 L1,4 L0,4 Z " fill="#232323" transform="translate(98,44)"/>
<path d="M0,0 L1,0 L1,2 L2,2 L2,4 L1,4 L1,6 L0,6 L0,8 L-1,8 L-1,12 L-3,12 L-3,13 L-4,13 L-4,10 L-3,10 L-3,8 L-2,8 L-2,7 L-1,7 L-1,3 L0,3 Z " fill="#282828" transform="translate(116,61)"/>
<path d="M0,0 L1,0 L1,4 L5,4 L5,3 L10,3 L10,5 L5,5 L5,6 L0,6 L0,5 L-1,5 L-1,4 L0,4 Z " fill="#111111" transform="translate(737,42)"/>
<path d="M0,0 L2,0 L2,1 L3,1 L3,2 L4,2 L4,3 L5,3 L5,4 L6,4 L6,5 L7,5 L7,6 L8,6 L8,8 L9,8 L9,9 L7,9 L7,8 L6,8 L6,7 L5,7 L5,6 L4,6 L4,5 L3,5 L3,4 L2,4 L2,3 L1,3 L1,2 L0,2 Z " fill="#121212" transform="translate(276,75)"/>
<path d="M0,0 L2,0 L2,2 L3,2 L3,19 L2,19 L2,4 L1,4 L1,3 L0,3 Z " fill="#020202" transform="translate(365,45)"/>
<path d="M0,0 L1,0 L1,1 L2,1 L2,2 L3,2 L3,3 L4,3 L4,4 L5,4 L5,5 L16,5 L16,6 L4,6 L4,5 L2,5 L2,4 L1,4 L1,2 L0,2 Z " fill="#272727" transform="translate(265,45)"/>
<path d="M0,0 L1,0 L1,3 L2,3 L2,4 L3,4 L3,5 L4,5 L4,6 L6,6 L6,7 L7,7 L7,9 L5,9 L5,8 L3,8 L3,7 L2,7 L2,6 L1,6 L1,5 L0,5 L0,3 L-1,3 L-1,2 L0,2 Z " fill="#141414" transform="translate(169,75)"/>
<path d="M0,0 L1,0 L1,1 L3,1 L3,3 L4,3 L4,5 L5,5 L5,8 L6,8 L6,10 L4,10 L4,9 L3,9 L3,6 L2,6 L2,3 L1,3 L1,2 L0,2 Z " fill="#242424" transform="translate(77,31)"/>
<path d="M0,0 L3,0 L3,1 L5,1 L5,2 L6,2 L6,3 L7,3 L7,4 L8,4 L8,6 L9,6 L9,7 L7,7 L7,6 L6,6 L6,4 L4,4 L4,3 L3,3 L3,2 L0,2 Z " fill="#0E0E0E" transform="translate(343,42)"/>
<path d="M0,0 L6,0 L6,1 L5,1 L5,3 L6,3 L6,4 L7,4 L7,6 L6,6 L6,5 L5,5 L5,4 L3,4 L3,3 L2,3 L2,2 L1,2 L1,1 L0,1 Z " fill="#1D1D1D" transform="translate(455,63)"/>
<path d="M0,0 L1,0 L1,3 L2,3 L2,4 L3,4 L3,5 L4,5 L4,6 L6,6 L6,8 L4,8 L4,7 L2,7 L2,6 L1,6 L1,5 L0,5 L0,3 L-1,3 L-1,2 L0,2 Z " fill="#1C1C1C" transform="translate(625,76)"/>
<path d="M0,0 L2,0 L2,3 L3,3 L3,5 L4,5 L4,6 L5,6 L5,11 L4,11 L4,9 L3,9 L3,7 L2,7 L2,4 L1,4 L1,1 L0,1 Z " fill="#0C0C0C" transform="translate(124,58)"/>
<path d="M0,0 L1,0 L1,4 L0,4 L0,6 L-2,6 L-2,7 L-3,7 L-3,8 L-5,8 L-5,6 L-4,6 L-4,5 L-2,5 L-2,4 L-1,4 L-1,2 L0,2 Z " fill="#0E0E0E" transform="translate(749,76)"/>
<path d="M0,0 L2,0 L2,2 L0,2 L0,3 L-4,3 L-4,4 L-6,4 L-6,2 L-5,2 L-5,1 L0,1 Z " fill="#0C0C0C" transform="translate(352,80)"/>
<path d="M0,0 L2,0 L2,1 L4,1 L4,2 L5,2 L5,3 L6,3 L6,4 L7,4 L7,6 L5,6 L5,5 L4,5 L4,4 L3,4 L3,3 L2,3 L2,2 L0,2 Z " fill="#141414" transform="translate(466,30)"/>
</svg>
